PathFileType	4	(X/Y/Z)	 s11c0303.trc
DataRate	CameraRate	NumFrames	NumMarkers	Units	OrigDataRate	OrigDataStartFrame	OrigNumFrames
200	200	4	48	mm	200	1	2000
Frame#	Time	racr			lacr			c7			jug			rlel			rdr			llel			ldr			s2			lic			ric			lasi			rasi			rpsi			lpsi			rgt			lgt			rth1			rth2			rth3			rth4			rlfc			rmfc			rsh1			rsh2			rsh3			rsh4			rlmal			rcal			rtoe			rmt5			lth1			lth2			lth4			lth3			llfc			lmfc			llmal			lcal			lmt5			lsh1			lsh2			lsh3			lsh4			ltoe			SBIKE			LBIKE			RBIKE			
		X1	Y1	Z1	X2	Y2	Z2	X3	Y3	Z3	X4	Y4	Z4	X5	Y5	Z5	X6	Y6	Z6	X7	Y7	Z7	X8	Y8	Z8	X9	Y9	Z9	X10	Y10	Z10	X11	Y11	Z11	X12	Y12	Z12	X13	Y13	Z13	X14	Y14	Z14	X15	Y15	Z15	X16	Y16	Z16	X17	Y17	Z17	X18	Y18	Z18	X19	Y19	Z19	X20	Y20	Z20	X21	Y21	Z21	X22	Y22	Z22	X23	Y23	Z23	X24	Y24	Z24	X25	Y25	Z25	X26	Y26	Z26	X27	Y27	Z27	X28	Y28	Z28	X29	Y29	Z29	X30	Y30	Z30	X31	Y31	Z31	X32	Y32	Z32	X33	Y33	Z33	X34	Y34	Z34	X35	Y35	Z35	X36	Y36	Z36	X37	Y37	Z37	X38	Y38	Z38	X39	Y39	Z39	X40	Y40	Z40	X41	Y41	Z41	X42	Y42	Z42	X43	Y43	Z43	X44	Y44	Z44	X45	Y45	Z45	X46	Y46	Z46	X47	Y47	Z47	X48	Y48	Z48	
1	0.0050	485.369777	1400.723649	-100.126970	492.104250	1424.049378	-391.748765	404.737451	1487.912661	-248.477328	456.318058	1318.385547	-258.364046	610.297303	1158.912090	-42.930624	NaN	NaN	NaN	596.369435	1142.815243	-457.848301	812.892173	913.494538	-404.218189	-133.801796	1211.661027	-267.011097	93.378901	1217.815385	-463.773455	95.115098	1204.619280	-64.583846	105.742814	1150.192309	-422.997818	119.637976	1136.700632	-92.376233	-84.638750	1287.091024	-209.728124	-83.521982	1281.583931	-303.008746	11.212755	1065.471410	-38.997788	-3.417428	1103.054451	-480.625073	98.395816	950.460334	-32.956917	174.461349	897.322347	-42.878281	211.205834	818.716957	-58.216066	201.613333	921.070465	-51.844803	274.103397	732.153631	-72.664410	273.472572	714.212097	-199.158747	185.191209	597.262194	-62.970397	157.039479	515.625186	-82.569618	92.871794	456.767582	-85.989338	179.987161	506.019532	-114.286861	7.766967	353.762855	-102.429190	-58.217700	349.252581	-152.112081	209.701867	249.873365	-137.164281	133.540191	240.266860	-70.224450	132.645351	1037.764975	-483.128741	217.366686	1028.694835	-476.100013	231.495935	1061.974054	-465.778004	289.120620	974.590068	-469.801573	415.204364	911.318841	-437.172800	422.525841	910.853979	-310.629152	281.661639	506.236576	-407.057170	224.525896	464.343360	-369.808031	424.528613	408.987506	-439.046971	376.576233	791.260495	-454.060771	377.368909	707.564927	-437.328960	335.156158	629.257913	-430.350179	407.282828	702.677798	-413.218644	520.344026	430.326012	-370.722032	-205.948504	949.497232	-261.938092	0.999393	82.593501	-460.625790	-15.454492	81.095663	-62.341557	
2	0.0100	485.124468	1400.500089	-100.086881	491.736038	1423.584952	-391.652504	404.315888	1488.012246	-248.373199	455.794949	1318.333115	-258.258640	610.204366	1158.849609	-43.059124	NaN	NaN	NaN	596.484245	1142.797735	-457.866945	812.944613	913.456908	-404.159030	-134.092434	1211.591954	-266.984827	92.906681	1217.831270	-463.706388	94.838656	1204.708408	-64.570029	105.282677	1149.974032	-422.662576	119.332628	1136.787150	-92.450424	-85.050706	1287.011962	-209.591833	-83.895613	1281.558308	-303.015565	11.038261	1065.603986	-38.985510	-3.746758	1102.860552	-480.523168	98.296014	950.664186	-32.820992	174.428600	897.567158	-42.833209	211.222196	818.925799	-58.140487	201.543753	921.285562	-51.797898	274.149634	732.385219	-72.547760	273.604934	714.498743	-199.127981	185.171268	597.546005	-62.891359	157.038573	515.871740	-82.539927	92.824930	457.105378	-85.950024	179.947502	506.291286	-114.220778	7.656005	354.134279	-102.438128	-58.310671	349.571195	-152.097370	209.514508	250.168494	-137.161950	133.371098	240.598761	-70.219940	132.377081	1037.574841	-483.081829	217.091288	1028.451900	-476.120968	231.255767	1061.724731	-465.854289	288.796036	974.306937	-469.814416	414.800954	910.932847	-437.276494	422.206505	910.515691	-310.665831	281.670548	505.791134	-407.065466	224.578946	463.790696	-369.766367	424.656571	408.684632	-439.051003	376.388083	790.833061	-454.017516	377.041989	706.322559	-437.345504	335.035440	628.748102	-430.353878	406.802692	702.596869	-415.366459	520.438335	430.159171	-370.748671	-205.949151	949.475315	-261.925321	0.957114	82.626409	-460.616954	-15.448523	81.087043	-62.339129	
3	0.0150	484.830390	1400.327782	-100.108228	491.401825	1423.126227	-391.562190	403.949426	1488.088911	-248.194218	455.343227	1318.270396	-258.157388	610.123856	1158.804043	-43.245281	NaN	NaN	NaN	596.620111	1142.815646	-457.894720	813.006547	913.448478	-404.124627	-134.438660	1211.569209	-266.951789	92.521429	1217.903429	-463.804158	94.549082	1204.818141	-64.557226	105.080350	1149.993353	-422.801935	119.011909	1136.889074	-92.520610	-85.363631	1287.101232	-209.660855	-84.321258	1281.527360	-302.989010	10.881008	1065.705322	-39.010961	-3.994450	1102.771089	-480.472504	98.192065	950.832470	-32.695633	174.373344	897.778627	-42.772367	211.186708	819.164947	-58.074952	201.475339	921.497329	-51.769548	274.178823	732.617175	-72.450332	273.684426	714.739984	-199.023206	185.170407	597.791388	-62.830045	157.041218	516.181499	-82.468273	92.769323	457.378348	-85.908096	179.940093	506.562609	-114.150985	7.542658	354.496861	-102.415458	-58.431480	350.036299	-152.150112	209.384394	250.465178	-137.155428	133.275275	240.868024	-70.225362	132.099862	1037.416036	-483.032563	216.833102	1028.265501	-476.135083	231.048986	1061.467271	-465.879928	288.479015	974.000025	-469.833463	414.454843	910.568160	-437.309777	421.915634	910.168151	-310.699200	281.707074	505.262046	-407.052176	224.606594	463.300290	-369.829775	424.773893	408.403026	-439.073853	376.287896	790.140970	-453.437474	377.099106	706.785177	-437.263736	334.954227	628.370904	-430.342563	406.908294	701.922322	-413.211484	520.538875	429.981509	-370.743091	-205.959025	949.472143	-261.917258	0.987183	82.619425	-460.623773	-15.439787	81.108096	-62.332438	
4	0.0200	484.527206	1400.096993	-100.105640	491.029374	1422.635010	-391.455131	403.603950	1488.174115	-248.168965	454.817075	1318.286683	-258.036322	610.058710	1158.754506	-43.427369	NaN	NaN	NaN	596.761406	1142.815003	-457.914145	812.289995	912.481216	-403.204638	-134.840095	1211.594809	-266.856596	92.166303	1217.939813	-463.851578	94.186912	1204.948744	-64.546277	104.876690	1150.053759	-422.935218	118.470232	1137.076258	-92.645592	-85.456166	1287.095779	-209.060331	-85.155623	1281.531448	-302.664273	10.728176	1065.833316	-39.018488	-4.229528	1102.691034	-480.404476	98.090476	951.021118	-32.554132	174.310147	898.017368	-42.738607	211.130808	819.371502	-57.968583	201.155066	921.644156	-51.907963	274.198631	732.868263	-72.345842	273.661208	715.127004	-199.093440	185.146712	598.078825	-62.779670	157.223163	516.453013	-82.315438	92.688104	457.688526	-85.855389	179.767675	506.943638	-114.167460	7.417842	354.859631	-102.389051	-58.528704	350.446268	-152.187864	209.263821	250.714705	-137.159197	133.130873	241.151540	-70.250285	131.779978	1037.154334	-482.993794	216.547409	1028.052825	-476.121954	230.998016	1061.411050	-466.033467	288.167190	973.718719	-469.860489	414.112500	910.240904	-437.385586	421.622392	909.834082	-310.744630	281.759124	504.797142	-407.064833	224.621301	462.791165	-369.874868	424.886925	408.101867	-439.083725	376.043111	789.742977	-453.460632	376.828775	705.626005	-437.376549	334.886379	627.959776	-430.349542	406.540098	701.984553	-415.607558	520.642226	429.774400	-370.767174	-205.960536	949.472720	-261.920795	0.966968	82.659120	-460.567120	-15.440808	81.111284	-62.340551	
